HIERARCHY
ROOT hip
{
OFFSET -1.74 93.41 0.28
CHANNELS 6 Xposition Yposition Zposition Zrotation Xrotation Yrotation
JOINT abdomen
{
OFFSET 0 7.23 0
CHANNELS 6 Xposition Yposition Zposition Zrotation Xrotation Yrotation
JOINT chest
{
OFFSET 0 16.54 0
CHANNELS 6 Xposition Yposition Zposition Zrotation Xrotation Yrotation
JOINT neck
{
OFFSET 0 34.21 0
CHANNELS 6 Xposition Yposition Zposition Zrotation Xrotation Yrotation
JOINT head
{
OFFSET 0 6.29 0
CHANNELS 6 Xposition Yposition Zposition Zrotation Xrotation Yrotation
End Site
{
OFFSET 0 21.21 0
}
}
}
JOINT lCollar
{
OFFSET 4.06 26.61 -1.12
CHANNELS 6 Xposition Yposition Zposition Zrotation Xrotation Yrotation
JOINT lShldr
{
OFFSET 14.17 0 0
CHANNELS 6 Xposition Yposition Zposition Zrotation Xrotation Yrotation
JOINT lForeArm
{
OFFSET 26.12 0 0
CHANNELS 6 Xposition Yposition Zposition Zrotation Xrotation Yrotation
JOINT lHand
{
OFFSET 27.71 0 0
CHANNELS 6 Xposition Yposition Zposition Zrotation Xrotation Yrotation
JOINT lThumb1
{
OFFSET 2.29 -0.46 1.83
CHANNELS 6 Xposition Yposition Zposition Zrotation Xrotation Yrotation
JOINT lThumb2
{
OFFSET 5.29 0 0
CHANNELS 6 Xposition Yposition Zposition Zrotation Xrotation Yrotation
JOINT lThumb3
{
OFFSET 3.01 0 0
CHANNELS 6 Xposition Yposition Zposition Zrotation Xrotation Yrotation
End Site
{
OFFSET 2.62 0 0
}
}
}
}
JOINT lIndex1
{
OFFSET 9.37 0.29 2.59
CHANNELS 6 Xposition Yposition Zposition Zrotation Xrotation Yrotation
JOINT lIndex2
{
OFFSET 4.34 0 0
CHANNELS 6 Xposition Yposition Zposition Zrotation Xrotation Yrotation
JOINT lIndex3
{
OFFSET 2.16 0 0
CHANNELS 6 Xposition Yposition Zposition Zrotation Xrotation Yrotation
End Site
{
OFFSET 2.20 0 0
}
}
}
}
JOINT lMid1
{
OFFSET 9.47 0.83 0.29
CHANNELS 6 Xposition Yposition Zposition Zrotation Xrotation Yrotation
JOINT lMid2
{
OFFSET 4.77 0 0
CHANNELS 6 Xposition Yposition Zposition Zrotation Xrotation Yrotation
JOINT lMid3
{
OFFSET 2.87 0 0
CHANNELS 6 Xposition Yposition Zposition Zrotation Xrotation Yrotation
End Site
{
OFFSET 2.09 0 0
}
}
}
}
JOINT lRing1
{
OFFSET 8.65 1.01 -1.70
CHANNELS 6 Xposition Yposition Zposition Zrotation Xrotation Yrotation
JOINT lRing2
{
OFFSET 4.54 0 0
CHANNELS 6 Xposition Yposition Zposition Zrotation Xrotation Yrotation
JOINT lRing3
{
OFFSET 2.50 0 0
CHANNELS 6 Xposition Yposition Zposition Zrotation Xrotation Yrotation
End Site
{
OFFSET 2.20 0 0
}
}
}
}
JOINT lPinky1
{
OFFSET 7.69 0.66 -3.90
CHANNELS 6 Xposition Yposition Zposition Zrotation Xrotation Yrotation
JOINT lPinky2
{
OFFSET 3.21 0 0
CHANNELS 6 Xposition Yposition Zposition Zrotation Xrotation Yrotation
JOINT lPinky3
{
OFFSET 1.92 0 0
CHANNELS 6 Xposition Yposition Zposition Zrotation Xrotation Yrotation
End Site
{
OFFSET 1.78 0 0
}
}
}
}
}
}
}
}
JOINT rCollar
{
OFFSET -4.06 26.61 -1.12
CHANNELS 6 Xposition Yposition Zposition Zrotation Xrotation Yrotation
JOINT rShldr
{
OFFSET -14.17 0 0
CHANNELS 6 Xposition Yposition Zposition Zrotation Xrotation Yrotation
JOINT rForeArm
{
OFFSET -26.12 0 0
CHANNELS 6 Xposition Yposition Zposition Zrotation Xrotation Yrotation
JOINT rHand
{
OFFSET -27.71 0 0
CHANNELS 6 Xposition Yposition Zposition Zrotation Xrotation Yrotation
JOINT rThumb1
{
OFFSET -2.29 -0.46 1.83
CHANNELS 6 Xposition Yposition Zposition Zrotation Xrotation Yrotation
JOINT rThumb2
{
OFFSET -5.29 0 0
CHANNELS 6 Xposition Yposition Zposition Zrotation Xrotation Yrotation
JOINT rThumb3
{
OFFSET -3.01 0 0
CHANNELS 6 Xposition Yposition Zposition Zrotation Xrotation Yrotation
End Site
{
OFFSET -2.62 0 0
}
}
}
}
JOINT rIndex1
{
OFFSET -9.37 0.29 2.59
CHANNELS 6 Xposition Yposition Zposition Zrotation Xrotation Yrotation
JOINT rIndex2
{
OFFSET -4.34 0 0
CHANNELS 6 Xposition Yposition Zposition Zrotation Xrotation Yrotation
JOINT rIndex3
{
OFFSET -2.16 0 0
CHANNELS 6 Xposition Yposition Zposition Zrotation Xrotation Yrotation
End Site
{
OFFSET -2.20 0 0
}
}
}
}
JOINT rMid1
{
OFFSET -9.47 0.83 0.29
CHANNELS 6 Xposition Yposition Zposition Zrotation Xrotation Yrotation
JOINT rMid2
{
OFFSET -4.77 0 0
CHANNELS 6 Xposition Yposition Zposition Zrotation Xrotation Yrotation
JOINT rMid3
{
OFFSET -2.87 0 0
CHANNELS 6 Xposition Yposition Zposition Zrotation Xrotation Yrotation
End Site
{
OFFSET -2.09 0 0
}
}
}
}
JOINT rRing1
{
OFFSET -8.65 1.01 -1.70
CHANNELS 6 Xposition Yposition Zposition Zrotation Xrotation Yrotation
JOINT rRing2
{
OFFSET -4.54 0 0
CHANNELS 6 Xposition Yposition Zposition Zrotation Xrotation Yrotation
JOINT rRing3
{
OFFSET -2.50 0 0
CHANNELS 6 Xposition Yposition Zposition Zrotation Xrotation Yrotation
End Site
{
OFFSET -2.20 0 0
}
}
}
}
JOINT rPinky1
{
OFFSET -7.69 0.66 -3.90
CHANNELS 6 Xposition Yposition Zposition Zrotation Xrotation Yrotation
JOINT rPinky2
{
OFFSET -3.21 0 0
CHANNELS 6 Xposition Yposition Zposition Zrotation Xrotation Yrotation
JOINT rPinky3
{
OFFSET -1.92 0 0
CHANNELS 6 Xposition Yposition Zposition Zrotation Xrotation Yrotation
End Site
{
OFFSET -1.78 0 0
}
}
}
}
}
}
}
}
}
}
JOINT lThigh
{
OFFSET 8.73 -0 0
CHANNELS 6 Xposition Yposition Zposition Zrotation Xrotation Yrotation
JOINT lShin
{
OFFSET 0 -46.66 0
CHANNELS 6 Xposition Yposition Zposition Zrotation Xrotation Yrotation
JOINT lFoot
{
OFFSET 0 -40.14 0
CHANNELS 6 Xposition Yposition Zposition Zrotation Xrotation Yrotation
JOINT lToes
{
OFFSET 0 -8.88 14.22
CHANNELS 6 Xposition Yposition Zposition Zrotation Xrotation Yrotation
End Site
{
OFFSET 0 0 6.29
}
}
}
}
}
JOINT rThigh
{
OFFSET -8.73 0 -0
CHANNELS 6 Xposition Yposition Zposition Zrotation Xrotation Yrotation
JOINT rShin
{
OFFSET 0 -46.66 0
CHANNELS 6 Xposition Yposition Zposition Zrotation Xrotation Yrotation
JOINT rFoot
{
OFFSET 0 -40.14 0
CHANNELS 6 Xposition Yposition Zposition Zrotation Xrotation Yrotation
JOINT rToes
{
OFFSET 0 -8.88 14.22
CHANNELS 6 Xposition Yposition Zposition Zrotation Xrotation Yrotation
End Site
{
OFFSET 0 0 6.29
}
}
}
}
}
}
MOTION
Frames: 7
Frame Time: 0.03
-1.74 93.41 0.28 -4.80 -3.04 -6.43 0 7.23 0 6.02 -3.44 -1.70 0 16.54 0 11.77 -5.25 -3.89 0 34.21 0 -3.29 36.35 1.17 0 6.29 0 -11.14 -19.71 -0.12 4.06 26.61 -1.12 -3.42 -4.39 7.64 14.17 0 0 -90.17 20.84 17.50 26.12 0 0 -0.19 0.02 -13.25 27.71 0 0 -9.06 -0.47 -8.83 2.29 -0.46 1.83 48.25 74.53 -64.68 5.29 0 0 -16.00 -2.99 14.40 3.01 0 0 -4.86 -4.26 8.02 9.37 0.29 2.59 -2.33 -1.25 -1.05 4.34 0 0 -25.31 -0.97 5.56 2.16 0 0 -18.12 -0.62 3.47 9.47 0.83 0.29 -6.26 -4.06 0.52 4.77 0 0 -27.70 -1.74 7.44 2.87 0 0 -17.72 -0.64 6.33 8.65 1.01 -1.70 -10.69 2.56 0.93 4.54 0 0 -40.77 -2.17 5.85 2.50 0 0 -26.11 -0.85 4.99 7.69 0.66 -3.90 -14.48 -8.87 4.29 3.21 0 0 -29.81 -0.67 6.69 1.92 0 0 -45.25 -6.28 16.76 -4.06 26.61 -1.12 8.27 -3.65 -0.26 -14.17 0 0 64.80 17.10 -19.66 -26.12 0 0 0.16 0.01 11.19 -27.71 0 0 7.98 -15.09 -0.86 -2.29 -0.46 1.83 -44.45 66.80 63.72 -5.29 0 0 23.30 1.97 -13.88 -3.01 0 0 1.04 0.21 -5.36 -9.37 0.29 2.59 3.27 -1.25 0.84 -4.34 0 0 19.89 -0.50 -4.44 -2.16 0 0 12.40 -0.28 -2.26 -9.47 0.83 0.29 4.43 -4.05 -0.15 -4.77 0 0 30.89 -2.19 -8.26 -2.87 0 0 14.82 -0.41 -5.58 -8.65 1.01 -1.70 13.56 2.47 -2.55 -4.54 0 0 37.83 -1.89 -5.53 -2.50 0 0 31.03 -1.22 -5.71 -7.69 0.66 -3.90 18.67 -9.08 -2.77 -3.21 0 0 29.73 -2.80 -10.55 -1.92 0 0 48.68 -7.25 -17.72 8.73 -0 0 17.99 -17.47 27.53 0 -46.66 0 6.87 21.71 -5.93 0 -40.14 0 -8.67 1.11 8.16 0 -8.88 14.22 0 0 -0 -8.73 0 -0 6.75 -3.56 -16.32 0 -46.66 0 -1.06 28.30 -7.63 0 -40.14 0 -0.98 -22.25 -8.37 0 -8.88 14.22 0 0 0 
-1.74 93.41 0.29 -4.79 -3.02 -6.40 0 7.23 0 6.01 -3.45 -1.69 0 16.54 0 11.77 -5.27 -3.87 0 34.21 0 -3.30 36.39 1.16 0 6.29 0 -11.21 -19.55 -0.16 4.06 26.61 -1.12 -3.41 -4.39 7.62 14.17 0 0 -90.23 20.85 17.52 26.12 0 0 -0.19 0.02 -13.25 27.71 0 0 -8.94 -0.63 -8.92 2.29 -0.46 1.83 48.25 74.53 -64.68 5.29 0 0 -16.00 -2.99 14.40 3.01 0 0 -4.86 -4.26 8.02 9.37 0.29 2.59 -2.33 -1.25 -1.05 4.34 0 0 -25.31 -0.97 5.56 2.16 0 0 -18.12 -0.62 3.47 9.47 0.83 0.29 -6.26 -4.06 0.52 4.77 0 0 -27.70 -1.74 7.44 2.87 0 0 -17.72 -0.64 6.33 8.65 1.01 -1.70 -10.68 2.56 0.93 4.54 0 0 -40.76 -2.17 5.85 2.50 0 0 -26.09 -0.85 4.99 7.69 0.66 -3.90 -14.47 -8.87 4.29 3.21 0 0 -29.79 -0.67 6.68 1.92 0 0 -45.24 -6.27 16.76 -4.06 26.61 -1.12 8.27 -3.64 -0.23 -14.17 0 0 64.88 17.24 -19.70 -26.12 0 0 0.16 0.01 11.15 -27.71 0 0 8.23 -14.87 -0.89 -2.29 -0.46 1.83 -44.48 66.80 63.74 -5.29 0 0 23.32 1.96 -13.87 -3.01 0 0 1.04 0.22 -5.35 -9.37 0.29 2.59 3.26 -1.25 0.85 -4.34 0 0 19.90 -0.50 -4.45 -2.16 0 0 12.40 -0.28 -2.26 -9.47 0.83 0.29 4.42 -4.05 -0.15 -4.77 0 0 30.91 -2.20 -8.27 -2.87 0 0 14.87 -0.41 -5.59 -8.65 1.01 -1.70 13.57 2.47 -2.56 -4.54 0 0 37.85 -1.90 -5.54 -2.50 0 0 31.11 -1.22 -5.72 -7.69 0.66 -3.90 18.69 -9.09 -2.78 -3.21 0 0 29.74 -2.81 -10.55 -1.92 0 0 48.79 -7.28 -17.75 8.73 -0 0 17.99 -17.48 27.55 0 -46.66 0 6.84 21.71 -5.95 0 -40.14 0 -8.65 1.10 8.16 0 -8.88 14.22 0 0 0 -8.73 0 -0 6.73 -3.55 -16.32 0 -46.66 0 -1.05 28.28 -7.65 0 -40.14 0 -0.98 -22.25 -8.37 0 -8.88 14.22 0 0 0 
-1.74 93.42 0.32 -4.78 -3.01 -6.38 0 7.23 0 5.99 -3.47 -1.68 0 16.54 0 11.73 -5.30 -3.86 0 34.21 0 -3.31 36.40 1.16 0 6.29 0 -11.30 -19.41 -0.18 4.06 26.61 -1.12 -3.39 -4.39 7.61 14.17 0 0 -90.26 20.85 17.54 26.12 0 0 -0.19 0.02 -13.25 27.71 0 0 -8.87 -0.78 -8.99 2.29 -0.46 1.83 48.25 74.53 -64.68 5.29 0 0 -16.00 -2.99 14.40 3.01 0 0 -4.86 -4.26 8.02 9.37 0.29 2.59 -2.33 -1.25 -1.05 4.34 0 0 -25.31 -0.97 5.56 2.16 0 0 -18.12 -0.62 3.47 9.47 0.83 0.29 -6.26 -4.06 0.52 4.77 0 0 -27.70 -1.74 7.44 2.87 0 0 -17.72 -0.64 6.33 8.65 1.01 -1.70 -10.67 2.56 0.93 4.54 0 0 -40.71 -2.17 5.84 2.50 0 0 -26.04 -0.84 4.98 7.69 0.66 -3.90 -14.44 -8.87 4.28 3.21 0 0 -29.73 -0.66 6.66 1.92 0 0 -45.18 -6.26 16.74 -4.06 26.61 -1.12 8.29 -3.64 -0.19 -14.17 0 0 65.05 17.39 -19.76 -26.12 0 0 0.16 0.01 11.04 -27.71 0 0 8.42 -14.71 -0.86 -2.29 -0.46 1.83 -44.46 66.80 63.73 -5.29 0 0 23.32 1.95 -13.87 -3.01 0 0 1.05 0.23 -5.34 -9.37 0.29 2.59 3.26 -1.25 0.84 -4.34 0 0 19.91 -0.50 -4.45 -2.16 0 0 12.40 -0.28 -2.26 -9.47 0.83 0.29 4.42 -4.05 -0.15 -4.77 0 0 30.91 -2.20 -8.27 -2.87 0 0 14.88 -0.41 -5.59 -8.65 1.01 -1.70 13.57 2.47 -2.56 -4.54 0 0 37.86 -1.90 -5.54 -2.50 0 0 31.13 -1.23 -5.72 -7.69 0.66 -3.90 18.70 -9.09 -2.78 -3.21 0 0 29.75 -2.81 -10.55 -1.92 0 0 48.81 -7.29 -17.75 8.73 -0 0 17.99 -17.48 27.56 0 -46.66 0 6.80 21.71 -5.97 0 -40.14 0 -8.62 1.08 8.16 0 -8.88 14.22 0 0 -0 -8.73 0 -0 6.72 -3.54 -16.33 0 -46.66 0 -1.04 28.25 -7.67 0 -40.14 0 -0.97 -22.25 -8.37 0 -8.88 14.22 0 0 0 
-1.73 93.42 0.34 -4.76 -2.99 -6.35 0 7.23 0 5.96 -3.48 -1.68 0 16.54 0 11.66 -5.33 -3.84 0 34.21 0 -3.33 36.40 1.17 0 6.29 0 -11.42 -19.27 -0.16 4.06 26.61 -1.12 -3.36 -4.39 7.63 14.17 0 0 -90.24 20.85 17.56 26.12 0 0 -0.19 0.02 -13.25 27.71 0 0 -8.86 -0.90 -9.03 2.29 -0.46 1.83 48.25 74.53 -64.68 5.29 0 0 -16.00 -2.99 14.40 3.01 0 0 -4.86 -4.26 8.02 9.37 0.29 2.59 -2.33 -1.25 -1.05 4.34 0 0 -25.31 -0.97 5.56 2.16 0 0 -18.12 -0.62 3.47 9.47 0.83 0.29 -6.26 -4.06 0.52 4.77 0 0 -27.70 -1.74 7.44 2.87 0 0 -17.72 -0.64 6.33 8.65 1.01 -1.70 -10.65 2.56 0.92 4.54 0 0 -40.63 -2.16 5.83 2.50 0 0 -25.96 -0.84 4.97 7.69 0.66 -3.90 -14.39 -8.87 4.27 3.21 0 0 -29.64 -0.65 6.63 1.92 0 0 -45.09 -6.23 16.72 -4.06 26.61 -1.12 8.32 -3.63 -0.13 -14.17 0 0 65.36 17.52 -19.84 -26.12 0 0 0.16 0.01 10.88 -27.71 0 0 8.53 -14.63 -0.81 -2.29 -0.46 1.83 -44.37 66.79 63.67 -5.29 0 0 23.29 1.99 -13.88 -3.01 0 0 1.04 0.19 -5.37 -9.37 0.29 2.59 3.28 -1.25 0.82 -4.34 0 0 19.88 -0.50 -4.44 -2.16 0 0 12.41 -0.28 -2.26 -9.47 0.83 0.29 4.45 -4.05 -0.16 -4.77 0 0 30.88 -2.19 -8.26 -2.87 0 0 14.77 -0.41 -5.56 -8.65 1.01 -1.70 13.55 2.47 -2.54 -4.54 0 0 37.80 -1.89 -5.53 -2.50 0 0 30.96 -1.21 -5.70 -7.69 0.66 -3.90 18.64 -9.08 -2.76 -3.21 0 0 29.72 -2.80 -10.54 -1.92 0 0 48.58 -7.23 -17.69 8.73 -0 0 18.00 -17.48 27.59 0 -46.66 0 6.75 21.73 -5.97 0 -40.14 0 -8.59 1.05 8.15 0 -8.88 14.22 0 0 0 -8.73 0 -0 6.71 -3.53 -16.34 0 -46.66 0 -1.05 28.21 -7.68 0 -40.14 0 -0.95 -22.25 -8.36 0 -8.88 14.22 0 0 -0 
-1.73 93.43 0.37 -4.74 -2.99 -6.34 0 7.23 0 5.91 -3.49 -1.67 0 16.54 0 11.57 -5.34 -3.83 0 34.21 0 -3.35 36.38 1.19 0 6.29 0 -11.56 -19.08 -0.13 4.06 26.61 -1.12 -3.30 -4.39 7.67 14.17 0 0 -90.19 20.82 17.57 26.12 0 0 -0.19 0.02 -13.25 27.71 0 0 -8.88 -0.96 -9.03 2.29 -0.46 1.83 48.25 74.53 -64.68 5.29 0 0 -16.00 -2.99 14.40 3.01 0 0 -4.86 -4.26 8.02 9.37 0.29 2.59 -2.33 -1.25 -1.05 4.34 0 0 -25.31 -0.97 5.56 2.16 0 0 -18.12 -0.62 3.47 9.47 0.83 0.29 -6.26 -4.06 0.52 4.77 0 0 -27.70 -1.74 7.44 2.87 0 0 -17.72 -0.64 6.33 8.65 1.01 -1.70 -10.63 2.56 0.92 4.54 0 0 -40.51 -2.15 5.82 2.50 0 0 -25.85 -0.83 4.95 7.69 0.66 -3.90 -14.33 -8.86 4.26 3.21 0 0 -29.52 -0.64 6.59 1.92 0 0 -44.98 -6.20 16.69 -4.06 26.61 -1.12 8.37 -3.62 -0.09 -14.17 0 0 65.75 17.62 -19.92 -26.12 0 0 0.16 0.01 10.73 -27.71 0 0 8.62 -14.60 -0.78 -2.29 -0.46 1.83 -44.25 66.80 63.57 -5.29 0 0 23.22 2.06 -13.93 -3.01 0 0 1.01 0.10 -5.43 -9.37 0.29 2.59 3.31 -1.25 0.80 -4.34 0 0 19.81 -0.49 -4.43 -2.16 0 0 12.42 -0.29 -2.26 -9.47 0.83 0.29 4.49 -4.05 -0.16 -4.77 0 0 30.80 -2.18 -8.24 -2.87 0 0 14.52 -0.39 -5.50 -8.65 1.01 -1.70 13.49 2.47 -2.51 -4.54 0 0 37.67 -1.88 -5.52 -2.50 0 0 30.59 -1.18 -5.65 -7.69 0.66 -3.90 18.51 -9.08 -2.73 -3.21 0 0 29.65 -2.79 -10.52 -1.92 0 0 48.04 -7.07 -17.56 8.73 -0 0 18.00 -17.47 27.62 0 -46.66 0 6.69 21.76 -5.95 0 -40.14 0 -8.55 1.01 8.15 0 -8.88 14.22 0 0 -0 -8.73 0 -0 6.71 -3.51 -16.34 0 -46.66 0 -1.07 28.18 -7.70 0 -40.14 0 -0.92 -22.24 -8.36 0 -8.88 14.22 0 0 0 
-1.72 93.44 0.40 -4.72 -2.98 -6.33 0 7.23 0 5.87 -3.48 -1.67 0 16.54 0 11.47 -5.32 -3.83 0 34.21 0 -3.35 36.38 1.19 0 6.29 0 -11.67 -18.80 -0.08 4.06 26.61 -1.12 -3.22 -4.39 7.71 14.17 0 0 -90.13 20.75 17.57 26.12 0 0 -0.19 0.02 -13.25 27.71 0 0 -8.93 -0.96 -8.97 2.29 -0.46 1.83 48.25 74.53 -64.68 5.29 0 0 -16.00 -2.99 14.40 3.01 0 0 -4.86 -4.26 8.02 9.37 0.29 2.59 -2.33 -1.25 -1.05 4.34 0 0 -25.31 -0.97 5.56 2.16 0 0 -18.12 -0.62 3.47 9.47 0.83 0.29 -6.26 -4.06 0.52 4.77 0 0 -27.70 -1.74 7.44 2.87 0 0 -17.72 -0.64 6.33 8.65 1.01 -1.70 -10.60 2.56 0.91 4.54 0 0 -40.37 -2.13 5.80 2.50 0 0 -25.71 -0.82 4.93 7.69 0.66 -3.90 -14.24 -8.86 4.24 3.21 0 0 -29.37 -0.62 6.53 1.92 0 0 -44.83 -6.16 16.65 -4.06 26.61 -1.12 8.41 -3.62 -0.09 -14.17 0 0 66.10 17.70 -19.96 -26.12 0 0 0.15 0.01 10.64 -27.71 0 0 8.76 -14.50 -0.81 -2.29 -0.46 1.83 -44.09 66.81 63.44 -5.29 0 0 23.12 2.17 -13.99 -3.01 0 0 0.96 -0.02 -5.52 -9.37 0.29 2.59 3.33 -1.25 0.77 -4.34 0 0 19.70 -0.48 -4.40 -2.16 0 0 12.43 -0.29 -2.26 -9.47 0.83 0.29 4.53 -4.05 -0.17 -4.77 0 0 30.69 -2.16 -8.21 -2.87 0 0 14.14 -0.36 -5.39 -8.65 1.01 -1.70 13.39 2.48 -2.48 -4.54 0 0 37.47 -1.86 -5.49 -2.50 0 0 30.01 -1.14 -5.57 -7.69 0.66 -3.90 18.30 -9.06 -2.69 -3.21 0 0 29.54 -2.77 -10.49 -1.92 0 0 47.22 -6.84 -17.34 8.73 -0 0 17.98 -17.45 27.63 0 -46.66 0 6.65 21.77 -5.91 0 -40.14 0 -8.52 0.97 8.15 0 -8.88 14.22 0 0 0 -8.73 0 -0 6.69 -3.48 -16.34 0 -46.66 0 -1.10 28.15 -7.70 0 -40.14 0 -0.89 -22.24 -8.35 0 -8.88 14.22 0 0 -0 
-1.71 93.44 0.43 -4.69 -2.99 -6.33 0 7.23 0 5.82 -3.46 -1.67 0 16.54 0 11.38 -5.28 -3.82 0 34.21 0 -3.33 36.38 1.19 0 6.29 0 -11.74 -18.39 -0.05 4.06 26.61 -1.12 -3.12 -4.40 7.74 14.17 0 0 -90.10 20.66 17.56 26.12 0 0 -0.19 0.02 -13.24 27.71 0 0 -8.98 -0.91 -8.87 2.29 -0.46 1.83 48.25 74.53 -64.68 5.29 0 0 -16.00 -2.99 14.40 3.01 0 0 -4.86 -4.26 8.02 9.37 0.29 2.59 -2.33 -1.25 -1.05 4.34 0 0 -25.31 -0.97 5.56 2.16 0 0 -18.12 -0.62 3.47 9.47 0.83 0.29 -6.26 -4.06 0.52 4.77 0 0 -27.70 -1.74 7.44 2.87 0 0 -17.72 -0.64 6.33 8.65 1.01 -1.70 -10.56 2.56 0.91 4.54 0 0 -40.21 -2.12 5.78 2.50 0 0 -25.54 -0.81 4.91 7.69 0.66 -3.90 -14.14 -8.86 4.22 3.21 0 0 -29.18 -0.60 6.47 1.92 0 0 -44.65 -6.11 16.60 -4.06 26.61 -1.12 8.43 -3.62 -0.12 -14.17 0 0 66.37 17.77 -19.96 -26.12 0 0 0.15 0.01 10.61 -27.71 0 0 8.95 -14.30 -0.88 -2.29 -0.46 1.83 -43.89 66.83 63.28 -5.29 0 0 22.98 2.33 -14.07 -3.01 0 0 0.89 -0.19 -5.64 -9.37 0.29 2.59 3.36 -1.25 0.74 -4.34 0 0 19.56 -0.47 -4.37 -2.16 0 0 12.43 -0.29 -2.27 -9.47 0.83 0.29 4.58 -4.05 -0.18 -4.77 0 0 30.53 -2.14 -8.17 -2.87 0 0 13.63 -0.33 -5.25 -8.65 1.01 -1.70 13.27 2.48 -2.43 -4.54 0 0 37.20 -1.83 -5.46 -2.50 0 0 29.24 -1.08 -5.46 -7.69 0.66 -3.90 18.03 -9.05 -2.63 -3.21 0 0 29.39 -2.74 -10.44 -1.92 0 0 46.12 -6.54 -17.06 8.73 -0 0 17.95 -17.42 27.63 0 -46.66 0 6.62 21.77 -5.87 0 -40.14 0 -8.50 0.94 8.14 0 -8.88 14.22 0 0 0 -8.73 0 -0 6.67 -3.45 -16.36 0 -46.66 0 -1.12 28.12 -7.67 0 -40.14 0 -0.87 -22.24 -8.35 0 -8.88 14.22 0 0 0 
